PathFileType	4	(X/Y/Z)	C:\Users\Willi\SynologyDrive\Deimel_MSc_Deadlift\Athlete_03\Athlete_3_22_07_06\dl_75\marker_experimental.trc
DataRate	CameraRate	NumFrames	NumMarkers	Units	OrigDataRate	OrigDataStartFrame	OrigNumFrames
200.000000	200.000000	4	59	mm	200.000000	356	2855
Frame#	Time	BR			GLAB			RFHD			LFHD			C7			T6			SPINMOL			SPINM2			SPINM3			T12			BELTOL			BELT2			BELT3			SACROL			SACR2			SACR3			LTHOL			LTH2			LTH3			LSHAOL			LSHA2			LSHA3			LHEE			LTOE			LM5			RTHOL			RTH2			RTH3			RSHAOL			RSHA2			RSHA3			RHEE			RTOE			RM5			STRN			XIPH			LACR			LUAOL			LUA2			LUA3			LLAOL			LLA2			LLA3			LWRU			RACR			RUAOL			RUA2			RUA3			RLAOL			RLA2			RLA3			RWRU			BL			USERMO0			USERMO1			USERMO2			USERMO3			USERMO4			USERMO5			
		X1	Y1	Z1	X2	Y2	Z2	X3	Y3	Z3	X4	Y4	Z4	X5	Y5	Z5	X6	Y6	Z6	X7	Y7	Z7	X8	Y8	Z8	X9	Y9	Z9	X10	Y10	Z10	X11	Y11	Z11	X12	Y12	Z12	X13	Y13	Z13	X14	Y14	Z14	X15	Y15	Z15	X16	Y16	Z16	X17	Y17	Z17	X18	Y18	Z18	X19	Y19	Z19	X20	Y20	Z20	X21	Y21	Z21	X22	Y22	Z22	X23	Y23	Z23	X24	Y24	Z24	X25	Y25	Z25	X26	Y26	Z26	X27	Y27	Z27	X28	Y28	Z28	X29	Y29	Z29	X30	Y30	Z30	X31	Y31	Z31	X32	Y32	Z32	X33	Y33	Z33	X34	Y34	Z34	X35	Y35	Z35	X36	Y36	Z36	X37	Y37	Z37	X38	Y38	Z38	X39	Y39	Z39	X40	Y40	Z40	X41	Y41	Z41	X42	Y42	Z42	X43	Y43	Z43	X44	Y44	Z44	X45	Y45	Z45	X46	Y46	Z46	X47	Y47	Z47	X48	Y48	Z48	X49	Y49	Z49	X50	Y50	Z50	X51	Y51	Z51	X52	Y52	Z52	X53	Y53	Z53	X54	Y54	Z54	X55	Y55	Z55	X56	Y56	Z56	X57	Y57	Z57	X58	Y58	Z58	X59	Y59	Z59	

357	1.78	199.7512054443359	251.5534057617188	-101.6060638427734	537.3119506835938	764.5231933593751	-1190.572265625	544.7607421875	835.3257446289064	-1123.14208984375	540.1128540039062	816.1683349609376	-1275.290649414062	403.8499755859375	977.8456420898439	-1205.567626953125	204.039794921875	1048.709716796875	-1215.769775390625	166.5989685058594	1056.469970703125	-1217.4873046875	105.3092498779297	1052.960815429688	-1165.971923828125	104.471565246582	1052.642578125	-1215.866455078125	46.90221786499023	1036.518432617188	-1217.186767578125	13.92283058166504	1061.18505859375	-1215.29833984375	-43.26227951049805	1042.81494140625	-1162.484619140625	-47.06731033325195	1048.988403320312	-1212.090209960938	-150.0695037841797	973.2420654296876	-1237.1689453125	-139.7670288085938	976.4554443359376	-1187.171142578125	-197.09228515625	946.2026977539064	-1198.689819335938	-26.2028865814209	714.9332275390626	-1445.70458984375	-36.97649383544922	636.0185546875001	-1437.114135742188	5.94274377822876	662.0912475585939	-1443.497680664062	70.05576324462891	340.6490173339845	-1431.932495117188	29.31333541870117	274.467498779297	-1420.702514648438	78.54389953613281	280.092010498047	-1423.923828125	1.878193140029907	64.12911224365243	-1321.131591796875	213.4349212646484	73.41370391845712	-1325.367553710938	167.7536315917969	57.10527420043954	-1429.845581054688	-24.50920295715332	683.5017089843751	-988.4940795898438	49.60296630859375	654.5115356445314	-981.2525024414062	6.354915618896484	629.5007934570314	-986.0118408203125	45.32155990600586	337.5857849121094	-989.8360595703125	83.70235443115234	268.1195983886719	-994.2529907226562	35.2371940612793	278.5031433105469	-1003.218444824219	-4.039602279663086	59.21866226196296	-1110.372192382812	207.2361450195312	81.26643371582038	-1087.033081054688	160.2159729003906	67.78601074218756	-993.2149658203125	320.1300659179688	826.1965942382814	-1212.479248046875	168.3087158203125	793.7878417968751	-1206.527587890625	366.5828857421875	858.0149536132814	-1402.918090820312	318.3143920898438	745.9414062500001	-1473.380249023438	278.9322814941406	700.4282226562501	-1502.852416992188	314.4773559570312	680.1401367187501	-1471.8974609375	253.8031005859375	467.4203186035157	-1481.580932617188	225.7188110351562	410.1761474609376	-1497.163940429688	250.0837860107422	409.1839294433595	-1453.53466796875	219.1077575683594	319.1178588867189	-1474.93603515625	364.3028564453125	850.2484741210939	-1027.1552734375	311.6383972167969	706.5727539062501	-978.6270751953125	298.7270812988281	648.0669555664064	-1004.452941894531	293.7015075683594	647.1729125976564	-954.7498168945312	255.8432006835938	458.1186218261719	-956.1724243164062	248.1643676757812	403.8539733886719	-991.1224365234375	240.5548553466797	397.2886352539063	-940.8304443359375	223.70849609375	325.1437072753907	-941.9000854492188	181.0656280517578	248.4634094238283	-2325.13623046875	0.01306550018489361	0.2489220052957535	-0.3743270039558411	0.3339320123195648	2.74904990196228	-0.24193899333477	2.931360006332397	0.03498740121722221	-0.01893110014498233	0.008088969625532627	0.008527879603207117	-0.0830535963177681	0.01115399971604347	0.009318220429122448	-0.008063609711825848	0.02267340011894703	0	0	
358	1.785	199.7522735595703	251.5500793457031	-101.6084671020508	537.2531127929688	764.2924804687501	-1190.715209960938	544.66943359375	835.0309448242189	-1123.265258789062	540.0029296875	815.9891357421876	-1275.43212890625	403.7508239746094	977.6328735351564	-1205.614135742188	204.0042266845703	1048.576416015625	-1215.889770507812	166.5661163330078	1056.354248046875	-1217.639892578125	105.262077331543	1052.887084960938	-1166.136474609375	104.437370300293	1052.559448242188	-1216.031860351562	46.86280822753906	1036.468994140625	-1217.38671875	13.89870357513428	1061.135498046875	-1215.494506835938	-43.29362869262695	1042.796508789062	-1162.675537109375	-47.09766387939453	1048.962036132812	-1212.278930664062	-150.1546478271484	973.2092285156251	-1237.349853515625	-139.84375	976.4371337890626	-1187.353759765625	-197.1772308349609	946.1882324218751	-1198.851928710938	-26.27077293395996	714.8873291015626	-1445.834228515625	-37.01726531982422	635.9663085937501	-1437.183471679688	5.89273738861084	662.0515747070314	-1443.578735351562	70.07731628417969	340.647186279297	-1431.94189453125	29.33527183532715	274.462371826172	-1420.720825195312	78.56594848632812	280.0890197753907	-1423.927490234375	1.881803631782532	64.12950134277352	-1321.139404296875	213.4338531494141	73.40360260009774	-1325.359375	167.7559051513672	57.10851669311532	-1429.836303710938	-24.31808662414551	683.6117553710939	-988.7750854492188	49.81163024902344	654.6315307617189	-981.66455078125	6.553024291992188	629.6138916015626	-986.302734375	45.34767913818359	337.7089843750001	-989.92431640625	83.61498260498047	268.1875000000001	-994.4061279296875	35.14053344726562	278.6367797851563	-1003.241943359375	-4.279255867004395	59.03318023681648	-1110.28076171875	206.96337890625	82.17575073242195	-1087.207763671875	160.0977325439453	68.21167755126959	-993.4420166015625	319.982421875	826.0085449218751	-1212.580810546875	168.1438903808594	793.6497192382814	-1206.775268554688	366.4173583984375	857.9264526367189	-1403.018310546875	317.9507141113281	745.9668579101564	-1473.606323242188	278.5164794921875	700.5142211914064	-1503.09130859375	314.0952453613281	680.1707763671876	-1472.221435546875	253.6079711914062	467.4735412597657	-1481.956176757812	225.5669555664062	410.1638793945314	-1497.418579101562	249.9781036376953	409.2646484375001	-1453.817016601562	219.0806427001953	319.1075744628907	-1475.016967773438	364.1376953125	850.0037231445314	-1027.257568359375	311.5445556640625	706.3759765625001	-978.6716918945312	298.5150756835938	647.8678588867189	-1004.453125	293.6088562011719	646.9818725585939	-954.7469482421875	255.6793823242188	457.9661865234376	-955.9700317382812	247.9704895019531	403.7098693847657	-990.91796875	240.4105072021484	397.1428833007813	-940.6172485351562	223.5881195068359	324.9387817382813	-941.7322998046875	181.0654754638672	248.4618988037111	-2325.138916015625	0.01295060012489557	0.2506749927997589	-0.3748739957809448	0.3338769972324371	2.758280038833618	-0.2378910034894942	2.930720090866089	0.03495150059461594	-0.01868969947099685	0.008219949901103973	0.008599149994552141	-0.08320630341768265	0.0111538004130125	0.009402030147612095	-0.008007899858057499	0.02258490025997162	0	0	
359	1.79	199.7526550292969	251.5459289550781	-101.6108856201172	537.1954956054688	764.0888061523439	-1190.839111328125	544.576904296875	834.7573852539064	-1123.379516601562	539.8960571289062	815.8354492187501	-1275.565307617188	403.6527099609375	977.4495849609376	-1205.660400390625	203.9621124267578	1048.462280273438	-1216.013916015625	166.5276947021484	1056.255737304688	-1217.796997070312	105.2091598510742	1052.830688476562	-1166.305908203125	104.3981018066406	1052.4912109375	-1216.202026367188	46.81942749023438	1036.431762695312	-1217.590942382812	13.87090969085693	1061.095947265625	-1215.694702148438	-43.32845306396484	1042.786743164062	-1162.86962890625	-47.13201904296875	1048.943237304688	-1212.471069335938	-150.2392883300781	973.1818847656251	-1237.530639648438	-139.9189605712891	976.4263305664064	-1187.537841796875	-197.2594604492188	946.1785888671876	-1199.01318359375	-26.32799339294434	714.8435668945314	-1445.958251953125	-37.04814529418945	635.9152221679689	-1437.245727539062	5.853249549865723	662.0128173828126	-1443.64990234375	70.104248046875	340.6487731933595	-1431.949951171875	29.36108779907227	274.4592285156251	-1420.736938476562	78.59238433837891	280.0872802734376	-1423.926879882812	1.885156035423279	64.12957763671884	-1321.147583007812	213.4326324462891	73.39307403564462	-1325.350219726562	167.7583770751953	57.11244583129891	-1429.825805664062	-24.1241340637207	683.7260131835939	-989.0519409179688	50.02201461791992	654.7528076171876	-982.0750122070312	6.752128124237061	629.7297363281251	-986.5906372070312	45.36455917358398	337.8323364257813	-990.0185546875	83.51853942871094	268.2548217773438	-994.563232421875	35.03610610961914	278.7703552246094	-1003.271362304688	-4.519883155822754	58.84398651123054	-1110.192993164062	206.6855773925781	83.09686279296882	-1087.409912109375	159.9804992675781	68.67214202880865	-993.6862182617188	319.8420104980469	825.8476562500001	-1212.677001953125	167.9885864257812	793.5294799804689	-1207.016479492188	366.2546691894531	857.8572998046876	-1403.119506835938	317.5768127441406	746.0110473632814	-1473.845825195312	278.0833740234375	700.6253051757814	-1503.34326171875	313.6979064941406	680.2210693359376	-1472.565795898438	253.4325256347656	467.5481262207032	-1482.353515625	225.4362335205078	410.167205810547	-1497.684692382812	249.8992462158203	409.3678283691407	-1454.114624023438	219.0841217041016	319.1105346679689	-1475.098876953125	363.9730224609375	849.7994995117189	-1027.354125976562	311.4437255859375	706.2166137695314	-978.7037353515625	298.2994995117188	647.7016601562501	-1004.439880371094	293.5073852539062	646.8317260742189	-954.7290649414062	255.5181732177734	457.8497924804688	-955.75341796875	247.788818359375	403.6034851074219	-990.7030639648438	240.2666778564453	397.0320434570313	-940.3955078125	223.4735717773438	324.7699279785157	-941.5632934570312	181.0644378662109	248.4602813720705	-2325.141845703125	0.01279900036752224	0.2518070042133331	-0.3763689994812012	0.3337230086326599	2.765799999237061	-0.234284996986389	2.930109977722168	0.03482849895954132	-0.01846599951386451	0.008411380462348461	0.008659759536385541	-0.08204250037670135	0.01113499980419874	0.009435329586267471	-0.007943790405988693	0.02215890027582645	0	0	
360	1.795	199.7523498535156	251.5409698486328	-101.6133117675781	537.1376953125	763.9103393554689	-1190.947998046875	544.483154296875	834.5053710937501	-1123.485229492188	539.7926025390625	815.7069702148439	-1275.68994140625	403.55615234375	977.2955322265626	-1205.706909179688	203.9135284423828	1048.366821289062	-1216.142456054688	166.4838409423828	1056.173950195312	-1217.95849609375	105.1508178710938	1052.791259765625	-1166.480102539062	104.3539199829102	1052.4375	-1216.376953125	46.77237701416016	1036.406372070312	-1217.799560546875	13.83948707580566	1061.066284179688	-1215.898803710938	-43.36660003662109	1042.785766601562	-1163.067138671875	-47.17022705078125	1048.931518554688	-1212.666870117188	-150.3233184814453	973.1598510742189	-1237.71142578125	-139.9926147460938	976.4224243164064	-1187.72314453125	-197.3388977050781	946.1734619140626	-1199.173706054688	-26.37305641174316	714.8015747070314	-1446.076171875	-37.06772232055664	635.8650512695314	-1437.300903320312	5.825680732727051	661.9746704101564	-1443.711059570312	70.13752746582031	340.6534729003907	-1431.95654296875	29.3914966583252	274.4581604003907	-1420.7509765625	78.62406921386719	280.0867309570314	-1423.921875	1.88826048374176	64.12937164306649	-1321.156005859375	213.4313354492188	73.38211822509774	-1325.339965820312	167.7610473632812	57.11708831787118	-1429.814208984375	-23.93031692504883	683.8427734375001	-989.3228759765625	50.23120880126953	654.8740844726564	-982.4807739257812	6.949556827545166	629.8466796875001	-986.8740844726562	45.37170028686523	337.9550476074219	-990.1187744140625	83.41331481933594	268.3212280273438	-994.723876953125	34.92424392700195	278.9028625488282	-1003.30712890625	-4.759761810302734	58.6523742675782	-1110.109375	206.4030914306641	84.02241516113288	-1087.640258789062	159.8664245605469	69.16401672363287	-993.9469604492188	319.7097473144531	825.7133789062501	-1212.768432617188	167.8436737060547	793.4263916015626	-1207.251220703125	366.0964660644531	857.8067016601564	-1403.2216796875	317.1958618164062	746.0731811523439	-1474.09814453125	277.6364135742188	700.7612915039064	-1503.608520507812	313.2877807617188	680.2901611328126	-1472.9296875	253.2765197753906	467.6422729492189	-1482.773559570312	225.3267974853516	410.1855773925782	-1497.965087890625	249.8470458984375	409.491912841797	-1454.430053710938	219.1169891357422	319.1257934570314	-1475.185668945312	363.8096008300781	849.6359863281251	-1027.445190429688	311.3326110839844	706.0942993164064	-978.7229614257812	298.0809326171875	647.5687255859376	-1004.412048339844	293.3958740234375	646.7233276367189	-954.6951904296875	255.3597412109375	457.7701721191407	-955.5250854492188	247.6184234619141	403.5356445312501	-990.4804077148438	240.1239318847656	396.9563903808594	-940.1683959960938	223.3659973144531	324.6378173828126	-941.3960571289062	181.0624847412109	248.4583587646486	-2325.145263671875	0.01261769980192184	0.2524279952049255	-0.3788599967956543	0.3335990011692047	2.771770000457764	-0.2311879992485045	2.929549932479858	0.03466739878058434	-0.01826680079102516	0.008657399564981461	0.008705429732799535	-0.07983429729938507	0.01111919991672039	0.009412639774382114	-0.007877299562096596	0.02145729959011078	0	0	
